<svg width="20" height="20" viewBox="0 0 20 20" fill="none" xmlns="http://www.w3.org/2000/svg">
<path d="M17.0558 2.71633H2.58692C1.82105 2.71633 1.2002 2.09281 1.2002 1.32363V0H18.4425V1.32363C18.4425 2.09281 17.8217 2.71633 17.0558 2.71633Z" fill="#B43E41"/>
<path d="M17.0887 4.81021H2.63834C2.45084 4.81021 2.29883 4.65752 2.29883 4.4693V3.82125C2.29883 3.63295 2.45084 3.48029 2.63834 3.48029H17.0887C17.2762 3.48029 17.4282 3.63295 17.4282 3.82125V4.4693C17.4282 4.65752 17.2762 4.81021 17.0887 4.81021Z" fill="#B43E41"/>
<path d="M7.11266 15.3866C7.11266 15.7547 6.81481 16.0509 6.44834 16.0509C6.26581 16.0509 6.10084 15.9762 5.9825 15.8573C5.8628 15.7371 5.78831 15.5715 5.78831 15.3866V7.67731C5.78831 7.31069 6.08329 7.013 6.44834 7.013C6.63085 7.013 6.79732 7.08782 6.91703 7.20803C7.0368 7.32831 7.11266 7.494 7.11266 7.67731V15.3866ZM14.2689 5.75208V9.28911L12.9445 9.65573V7.36531C12.9445 6.47435 12.2254 5.75208 11.3382 5.75208H3.14404V19.8709L7.39009 17.5232C8.66097 16.8206 9.45041 15.479 9.45041 14.0221V7.59712C9.45041 7.20781 9.7695 6.87562 10.1563 6.90141C10.3228 6.91246 10.4701 6.98403 10.5821 7.09365C10.7003 7.21393 10.7748 7.38106 10.7748 7.56444V15.6506L12.9445 14.4525V11.6824L14.2689 11.2263V13.7207L16.4985 12.486V5.75208H14.2689Z" fill="#B43E41"/>
</svg>
