<svg width="162" height="50" viewBox="0 0 162 50" fill="none" xmlns="http://www.w3.org/2000/svg">
<g clip-path="url(#clip0_160_169)">
<path d="M60.4712 3.98138H55.3623V6.07923C55.3623 7.51554 55.3248 8.76459 55.2505 9.82733C55.1758 10.8903 55.0782 11.8134 54.9577 12.5968C54.8364 13.38 54.6922 14.042 54.5246 14.5831C54.3571 15.1234 54.19 15.5897 54.0225 15.981H60.4712V3.98138ZM62.3694 23.6912C62.6298 22.8314 62.7602 22.1212 62.7602 21.5605V19.6538H51.4261V21.5886C51.4261 22.1494 51.547 22.8594 51.7888 23.7192H46.9873C47.2663 22.8594 47.4061 22.1494 47.4061 21.5886V16.5981C47.6479 16.5981 47.8989 16.5376 48.16 16.4156C48.4204 16.2944 48.6713 16.1355 48.9135 15.9392C49.1553 15.743 49.3786 15.5144 49.5837 15.2522C49.7883 14.9909 49.9464 14.7194 50.0582 14.4394C50.1882 14.1027 50.3138 13.7288 50.4351 13.3178C50.556 12.9066 50.6627 12.3927 50.756 11.7756C50.8488 11.1586 50.9188 10.3926 50.9654 9.47646C51.0116 8.56126 51.0353 7.43003 51.0353 6.08416V3.98138C51.0353 2.33687 50.756 1.1126 50.1977 0.308594H65.6078C65.3466 0.71996 65.1471 1.21076 65.0072 1.78062C64.8678 2.35105 64.7982 3.08432 64.7982 3.98138V15.981H66.7801V21.5527C66.7801 22.1151 66.9196 22.828 67.199 23.6912H62.3694Z" fill="white"/>
<path d="M73.6286 5.25677C72.7253 6.31292 72.2646 7.88784 72.2468 9.98117C72.2468 12.0374 72.6976 13.6027 73.6005 14.6773C74.503 15.7522 75.829 16.299 77.5786 16.3173C79.3096 16.3173 80.6214 15.7845 81.5148 14.7191C82.4082 13.654 82.8641 12.0745 82.8827 9.98117C82.8827 7.94399 82.4362 6.388 81.5428 5.31276C80.6495 4.23812 79.3278 3.6917 77.5786 3.67279C75.848 3.67279 74.531 4.20105 73.6286 5.25677ZM84.837 2.55123C86.4933 4.25248 87.3306 6.72863 87.3492 9.98117C87.3492 13.2148 86.521 15.6864 84.8646 17.3967C83.2083 19.107 80.7795 19.9712 77.5786 19.9901C74.4145 19.9901 71.9995 19.1397 70.3344 17.4387C68.6686 15.7382 67.8262 13.2522 67.8076 9.98117C67.8076 6.72863 68.6314 4.25701 70.2787 2.56522C71.9256 0.87399 74.3587 0.018913 77.5786 0C80.7609 0 83.1802 0.850537 84.837 2.55123Z" fill="white"/>
<path d="M95.0385 0.308594C94.7777 0.719957 94.5821 1.21076 94.4521 1.78062C94.3217 2.35105 94.2474 3.08432 94.2289 3.9814V7.62616H100.985V3.9814C100.985 3.14049 100.924 2.42519 100.803 1.83642C100.682 1.24802 100.482 0.738683 100.203 0.308594H106.122C105.86 0.719957 105.665 1.21076 105.535 1.78062C105.405 2.35105 105.33 3.08432 105.312 3.9814V16.0091C105.312 16.8319 105.372 17.5372 105.493 18.1259C105.614 18.7147 105.824 19.2244 106.122 19.6537H100.203C100.463 19.2613 100.654 18.7805 100.775 18.2101C100.896 17.6402 100.966 16.9064 100.985 16.0091V11.2991H94.2289V16.0091C94.2289 16.8319 94.2893 17.5372 94.4106 18.1259C94.5315 18.7147 94.7409 19.2244 95.0385 19.6537H89.0923C89.3527 19.2244 89.553 18.7243 89.6925 18.1541C89.8323 17.5841 89.9019 16.8691 89.9019 16.0091V3.9814C89.9019 2.35521 89.632 1.13152 89.0923 0.308594H95.0385Z" fill="white"/>
<path d="M113.128 0.308594C113.128 0.51437 113.142 0.715041 113.17 0.911362C113.198 1.10768 113.249 1.32254 113.324 1.55631C113.397 1.79027 113.495 2.05657 113.617 2.35521C113.738 2.65423 113.9 3.00035 114.105 3.39261L116.45 7.99045L119.13 2.38339C119.335 1.93477 119.465 1.54212 119.521 1.20566C119.577 0.869378 119.586 0.570735 119.549 0.308594H125.44C125.067 0.738683 124.658 1.29947 124.211 1.99094C123.764 2.68241 123.299 3.48642 122.815 4.402L118.404 12.8972C117.716 14.2245 117.106 15.3222 116.576 16.1917C116.046 17.0605 115.557 17.7524 115.11 18.2661C114.664 18.7805 114.231 19.1401 113.812 19.3454C113.393 19.5514 112.961 19.6537 112.514 19.6537H108.019C108.968 18.9065 109.829 18.1259 110.602 17.3127C111.374 16.4998 112.002 15.6916 112.486 14.8878L114.105 12.1682L110.364 4.99081C109.899 4.09374 109.378 3.25738 108.801 2.48136C108.224 1.7061 107.61 0.981342 106.958 0.308594H113.128Z" fill="white"/>
<path d="M125.216 19.1355C124.825 18.5655 124.35 17.701 123.792 16.5418C124.239 16.5418 124.7 16.4252 125.174 16.1917C125.649 15.9579 126.077 15.4766 126.458 14.7476C126.839 14.0185 127.151 12.9673 127.394 11.5933C127.635 10.2196 127.756 8.38291 127.756 6.08418V3.9814C127.756 2.33687 127.477 1.1126 126.919 0.308594H142.328C142.068 0.719962 141.868 1.21076 141.728 1.78062C141.589 2.35105 141.519 3.08432 141.519 3.9814V16.0091C141.519 16.8691 141.579 17.5841 141.7 18.1541C141.821 18.7243 142.03 19.2244 142.328 19.6537H136.411C136.931 18.8318 137.192 17.6168 137.192 16.0091V3.9814H132.083V6.08418C132.083 8.60739 131.919 10.7524 131.591 12.5185C131.263 14.285 130.837 15.7243 130.313 16.8362C129.789 17.9485 129.194 18.7525 128.53 19.2475C127.865 19.7425 127.198 19.9904 126.528 19.9904C126.044 19.9904 125.606 19.7052 125.216 19.1355Z" fill="white"/>
<path d="M156.175 8.83159V3.50444C154.556 3.24286 153.351 3.35994 152.56 3.85471C151.769 4.35044 151.373 5.09333 151.373 6.08385C151.373 6.66353 151.494 7.14508 151.736 7.5275C151.978 7.91087 152.309 8.2146 152.728 8.43893C153.146 8.66325 153.649 8.80829 154.235 8.87337C154.821 8.93921 155.467 8.9254 156.175 8.83159ZM150.061 11.0745C149.149 10.5885 148.465 9.92059 148.009 9.06968C147.553 8.21952 147.325 7.23341 147.325 6.11202C147.344 4.22428 147.947 2.78005 149.133 1.78029C150.321 0.780344 152.017 0.280273 154.223 0.280273C154.634 0.280273 155.152 0.28973 155.779 0.308266C156.405 0.327179 157.054 0.345903 157.727 0.364438C158.4 0.38335 159.049 0.38789 159.675 0.378244C160.3 0.368977 160.8 0.345903 161.172 0.308266C160.632 1.09317 160.363 2.30835 160.363 3.95306V16.0088C160.363 16.8875 160.432 17.6117 160.572 18.1818C160.711 18.7522 160.911 19.2428 161.172 19.6534H155.337C155.635 19.2052 155.849 18.6771 155.98 18.0694C156.11 17.4625 156.175 16.7754 156.175 16.0088V12.1679H155.589C155.254 12.1494 154.947 12.1399 154.668 12.1399C154.388 12.1399 154.128 12.1213 153.886 12.0837L151.932 15.7565C151.113 17.2705 150.41 18.3316 149.824 18.9389C149.238 19.5462 148.656 19.8498 148.079 19.8498C147.093 19.831 145.669 19.2521 143.808 18.1118C144.738 17.7194 145.623 17.1398 146.46 16.3733C147.297 15.6071 147.986 14.7473 148.526 13.794L150.061 11.0745Z" fill="white"/>
<path d="M51.1483 27.4895C51.1483 27.4099 51.1012 27.3303 51.0076 27.2507C50.9211 27.1711 50.8057 27.0987 50.6619 27.0336C50.5248 26.9685 50.3628 26.9142 50.1755 26.8708C49.9953 26.8274 49.808 26.8057 49.6132 26.8057C49.2458 26.8057 48.9111 26.8708 48.6084 27.0011C48.3058 27.1313 48.0497 27.3158 47.8411 27.5546C47.6321 27.7862 47.4697 28.072 47.3547 28.4121C47.2393 28.745 47.1816 29.1176 47.1816 29.5301C47.1816 29.9498 47.2358 30.3297 47.3436 30.6698C47.459 31.0099 47.6175 31.2994 47.8194 31.5382C48.0284 31.777 48.2769 31.9615 48.565 32.0917C48.8605 32.2148 49.1885 32.2763 49.5484 32.2763C49.7574 32.2763 49.9522 32.2546 50.132 32.2111C50.3197 32.1749 50.4817 32.1279 50.6184 32.07C50.7555 32.0121 50.8634 31.9434 50.9428 31.8638C51.0218 31.777 51.0617 31.6901 51.0617 31.6033L51.04 30.8109C50.8239 31.0425 50.6077 31.2125 50.3916 31.3211C50.1826 31.4296 49.9558 31.4839 49.7108 31.4839C49.2209 31.4839 48.8388 31.3102 48.565 30.9629C48.2987 30.6083 48.1651 30.1235 48.1651 29.5084C48.1722 28.9078 48.3022 28.4374 48.5543 28.0973C48.8135 27.7573 49.1521 27.5872 49.5702 27.5872C49.8222 27.5944 50.0601 27.6523 50.2833 27.7609C50.507 27.8694 50.6907 28.025 50.8345 28.2276L51.0724 27.7283C51.1084 27.6559 51.1301 27.6053 51.1372 27.5763C51.1443 27.5474 51.1483 27.5184 51.1483 27.4895ZM59.2056 26.9251H54.6988C54.7565 27.077 54.796 27.2543 54.8178 27.4569C54.8462 27.6596 54.8573 27.9128 54.8502 28.2167L54.8715 30.8544C54.8715 31.2017 54.8608 31.473 54.8391 31.6684C54.8178 31.8638 54.7779 32.0266 54.7202 32.1569H55.9739C55.9162 32.0121 55.8767 31.8421 55.855 31.6467C55.8336 31.4441 55.8226 31.18 55.8226 30.8544L55.8012 27.674H58.0925L58.1139 30.8544C58.1139 31.2017 58.1032 31.4694 58.0815 31.6576C58.0597 31.8457 58.0202 32.0121 57.9625 32.1569H59.2056C59.1479 32.0049 59.1084 31.8276 59.0867 31.625C59.0649 31.4224 59.0543 31.1655 59.0543 30.8544L59.0436 28.2167C59.0436 27.8694 59.0543 27.6017 59.076 27.4135C59.1048 27.2254 59.1479 27.0626 59.2056 26.9251ZM67.7434 26.9251H66.5869L64.2308 30.8109V28.2167C64.2308 27.9128 64.2414 27.6596 64.2632 27.4569C64.2849 27.2543 64.3244 27.077 64.3821 26.9251H63.1284C63.1861 27.077 63.2256 27.2543 63.2473 27.4569C63.2761 27.6596 63.2868 27.9128 63.2797 28.2167V30.8544C63.2797 31.2017 63.269 31.473 63.2473 31.6684C63.2256 31.8638 63.1861 32.0266 63.1284 32.1569H64.2632L66.6303 28.2819V30.8544C66.6303 31.2017 66.6193 31.4694 66.5975 31.6576C66.5762 31.8457 66.5363 32.0121 66.479 32.1569H67.7327C67.675 32.0049 67.6351 31.8276 67.6138 31.625C67.5921 31.4224 67.5814 31.1655 67.5814 30.8544V28.2167C67.5814 27.8694 67.5921 27.6017 67.6138 27.4135C67.6426 27.2254 67.6857 27.0626 67.7434 26.9251ZM75.2855 27.4895C75.2855 27.4099 75.2385 27.3303 75.1448 27.2507C75.0583 27.1711 74.9429 27.0987 74.7991 27.0336C74.662 26.9685 74.5 26.9142 74.3127 26.8708C74.1325 26.8274 73.9452 26.8057 73.7504 26.8057C73.383 26.8057 73.0479 26.8708 72.7456 27.0011C72.443 27.1313 72.1869 27.3158 71.9783 27.5546C71.7693 27.7862 71.6069 28.072 71.4919 28.4121C71.3765 28.745 71.3188 29.1176 71.3188 29.5301C71.3188 29.9498 71.373 30.3297 71.4809 30.6698C71.5962 31.0099 71.7547 31.2994 71.9566 31.5382C72.1656 31.777 72.4141 31.9615 72.7022 32.0917C72.9977 32.2148 73.3257 32.2763 73.6856 32.2763C73.8947 32.2763 74.089 32.2546 74.2692 32.2111C74.4565 32.1749 74.6189 32.1279 74.7556 32.07C74.8927 32.0121 75.0006 31.9434 75.08 31.8638C75.159 31.777 75.1989 31.6901 75.1989 31.6033L75.1772 30.8109C74.9611 31.0425 74.7449 31.2125 74.5288 31.3211C74.3198 31.4296 74.093 31.4839 73.848 31.4839C73.3581 31.4839 72.976 31.3102 72.7022 30.9629C72.4355 30.6083 72.3023 30.1235 72.3023 29.5084C72.3094 28.9078 72.4394 28.4374 72.6915 28.0973C72.9507 27.7573 73.2893 27.5872 73.7074 27.5872C73.9594 27.5944 74.1973 27.6523 74.4206 27.7609C74.6442 27.8694 74.8279 28.025 74.9718 28.2276L75.2096 27.7283C75.2456 27.6559 75.2673 27.6053 75.2744 27.5763C75.2815 27.5474 75.2855 27.5184 75.2855 27.4895ZM81.3218 29.7798V30.7458C81.3218 30.9846 81.2317 31.1836 81.0515 31.3428C80.8784 31.502 80.6587 31.5816 80.392 31.5816C80.1399 31.5816 79.942 31.5092 79.7978 31.3645C79.6611 31.2198 79.5923 31.0389 79.5923 30.8218C79.5998 30.4961 79.7547 30.2465 80.0574 30.0728C80.3596 29.8919 80.7812 29.7942 81.3218 29.7798ZM81.3218 29.1176C80.4284 29.1755 79.7725 29.3528 79.3548 29.6495C78.9297 29.9462 78.7171 30.3731 78.7171 30.9303C78.7242 31.35 78.8503 31.6793 79.0952 31.9181C79.3473 32.1569 79.6899 32.2763 80.1222 32.2763C80.6263 32.269 81.0697 32.0953 81.4514 31.7553C81.5162 31.9434 81.581 32.0773 81.6458 32.1569C81.711 32.2365 81.7758 32.2763 81.8406 32.2763C81.8907 32.269 81.952 32.2473 82.0243 32.2111L82.6833 31.8855C82.5178 31.7625 82.4024 31.6323 82.3376 31.4948C82.2799 31.3573 82.2511 31.1763 82.2511 30.9521V28.1842C82.2511 27.7066 82.1179 27.3592 81.8512 27.1422C81.592 26.9178 81.1957 26.8057 80.6623 26.8057C80.4173 26.8057 80.1834 26.8274 79.9598 26.8708C79.7365 26.907 79.5386 26.9576 79.3655 27.0228C79.2 27.0879 79.0664 27.1639 78.9656 27.2507C78.8649 27.3375 78.8143 27.428 78.8143 27.5221C78.8143 27.5799 78.825 27.6415 78.8467 27.7066L78.9874 28.1842C79.196 27.9671 79.4196 27.8079 79.6571 27.7066C79.9021 27.6053 80.1759 27.5546 80.4786 27.5546C80.7958 27.5546 81.0155 27.6089 81.138 27.7174C81.2605 27.826 81.3218 28.0033 81.3218 28.2493V29.1176ZM90.8643 26.9251H89.5996C89.6573 27.077 89.6936 27.2543 89.7078 27.4569C89.722 27.6596 89.7367 27.9128 89.7509 28.2167V28.9765H87.46V28.2167C87.46 27.9128 87.4706 27.6596 87.4924 27.4569C87.5137 27.2543 87.5536 27.077 87.6113 26.9251H86.3576C86.4149 27.077 86.4548 27.2543 86.4761 27.4569C86.505 27.6596 86.516 27.9128 86.5089 28.2167L86.5303 30.8544C86.5303 31.2017 86.5196 31.473 86.4979 31.6684C86.4761 31.8638 86.4366 32.0266 86.3789 32.1569H87.6326C87.575 32.0121 87.5354 31.8421 87.5137 31.6467C87.4924 31.4441 87.4813 31.18 87.4813 30.8544L87.46 29.6386H89.7509L89.7726 30.8544C89.7726 31.2017 89.762 31.4694 89.7402 31.6576C89.7185 31.8457 89.679 32.0121 89.6213 32.1569H90.8643C90.8067 32.0049 90.7671 31.8276 90.7454 31.625C90.7237 31.4224 90.713 31.1655 90.713 30.8544L90.702 28.2167C90.702 27.8694 90.713 27.6017 90.7347 27.4135C90.7632 27.2254 90.8067 27.0626 90.8643 26.9251ZM99.4021 26.9251H98.2456L95.8895 30.8109V28.2167C95.8895 27.9128 95.9002 27.6596 95.9219 27.4569C95.9436 27.2543 95.9832 27.077 96.0408 26.9251H94.7871C94.8448 27.077 94.8843 27.2543 94.9061 27.4569C94.9349 27.6596 94.9456 27.9128 94.9384 28.2167V30.8544C94.9384 31.2017 94.9278 31.473 94.9061 31.6684C94.8843 31.8638 94.8448 32.0266 94.7871 32.1569H95.9219L98.2887 28.2819V30.8544C98.2887 31.2017 98.278 31.4694 98.2563 31.6576C98.235 31.8457 98.195 32.0121 98.1374 32.1569H99.3911C99.3338 32.0049 99.2939 31.8276 99.2725 31.625C99.2508 31.4224 99.2397 31.1655 99.2397 30.8544V28.2167C99.2397 27.8694 99.2508 27.6017 99.2725 27.4135C99.301 27.2254 99.3445 27.0626 99.4021 26.9251ZM106.069 28.5424L103.918 29.3022V29.1394C103.918 28.6328 104.026 28.2421 104.242 27.9671C104.458 27.6921 104.75 27.5546 105.118 27.5546C105.355 27.5619 105.553 27.6523 105.712 27.826C105.878 27.9924 105.997 28.2312 106.069 28.5424ZM107.084 28.868C106.998 28.2167 106.785 27.7102 106.447 27.3484C106.108 26.9866 105.683 26.8057 105.172 26.8057C104.862 26.8057 104.57 26.8744 104.296 27.0119C104.029 27.1422 103.796 27.3267 103.594 27.5655C103.399 27.7971 103.244 28.072 103.129 28.3904C103.021 28.7016 102.967 29.038 102.967 29.3999C102.967 29.8413 103.024 30.2393 103.14 30.5938C103.255 30.9484 103.413 31.2523 103.615 31.5056C103.824 31.7517 104.069 31.9434 104.35 32.0809C104.638 32.2184 104.959 32.2871 105.312 32.2871C105.687 32.2871 106.033 32.2111 106.35 32.0592C106.666 31.9072 106.944 31.6938 107.182 31.4188L106.749 30.8001C106.562 31.0389 106.364 31.2125 106.155 31.3211C105.946 31.4296 105.708 31.4839 105.442 31.4839C105.074 31.4839 104.761 31.3464 104.502 31.0714C104.242 30.7892 104.076 30.4165 104.004 29.9534L107.084 28.868ZM121.519 33.2966C121.49 33.2242 121.465 33.0867 121.443 32.8841C121.421 32.6887 121.404 32.4861 121.389 32.2763C121.375 32.0736 121.364 31.8927 121.357 31.7336C121.35 31.5744 121.346 31.4948 121.346 31.4948H120.687V28.2276C120.687 27.8803 120.698 27.6125 120.719 27.4244C120.748 27.229 120.791 27.0626 120.849 26.9251H116.807C116.85 27.0047 116.889 27.1024 116.926 27.2181C116.962 27.3267 116.994 27.4424 117.023 27.5655C117.052 27.6885 117.073 27.8151 117.088 27.9454C117.102 28.0756 117.11 28.1986 117.11 28.3144V29.2371C117.11 29.6784 117.081 30.0439 117.023 30.3333C116.972 30.6155 116.897 30.8435 116.796 31.0172C116.702 31.1836 116.587 31.303 116.45 31.3753C116.313 31.4405 116.166 31.4803 116.007 31.4948C116.007 31.4948 116.004 31.5744 115.996 31.7336C115.989 31.8927 115.978 32.0736 115.964 32.2763C115.949 32.4861 115.931 32.6887 115.91 32.8841C115.888 33.0867 115.863 33.2242 115.834 33.2966H117.023C116.965 33.1591 116.918 33.0035 116.882 32.8298C116.853 32.6634 116.839 32.4391 116.839 32.1569H120.46C120.46 32.4391 120.442 32.6634 120.406 32.8298C120.377 33.0035 120.334 33.1591 120.276 33.2966H121.519ZM119.736 31.4948H117.596C117.726 31.2559 117.826 30.9629 117.898 30.6155C117.978 30.261 118.017 29.8557 118.017 29.3999V27.674H119.736V31.4948ZM129.772 29.541C129.764 28.6654 129.548 27.9924 129.123 27.5221C128.705 27.0445 128.114 26.8057 127.351 26.8057C126.58 26.8129 125.985 27.0553 125.568 27.5329C125.149 28.0033 124.94 28.6726 124.94 29.541C124.94 30.4165 125.149 31.0931 125.568 31.5707C125.993 32.0483 126.587 32.2871 127.351 32.2871C128.129 32.2799 128.727 32.0375 129.145 31.5599C129.563 31.0751 129.772 30.4021 129.772 29.541ZM128.788 29.541C128.788 30.1705 128.662 30.6553 128.41 30.9955C128.158 31.3355 127.805 31.5056 127.351 31.5056C126.882 31.4984 126.526 31.3247 126.281 30.9846C126.043 30.6445 125.924 30.1633 125.924 29.541C125.931 28.9042 126.057 28.4194 126.302 28.0865C126.547 27.7536 126.897 27.5872 127.351 27.5872C127.819 27.5944 128.176 27.7681 128.421 28.1082C128.666 28.4483 128.788 28.9259 128.788 29.541ZM138.011 26.9251H133.807C133.85 27.0047 133.89 27.1024 133.926 27.2181C133.961 27.3267 133.994 27.4424 134.023 27.5655C134.052 27.6885 134.073 27.8151 134.088 27.9454C134.102 28.0684 134.109 28.1878 134.109 28.3036L134.12 29.2371C134.12 29.6784 134.091 30.0367 134.033 30.3116C133.976 30.5794 133.897 30.7928 133.796 30.9521C133.695 31.104 133.576 31.2161 133.439 31.2885C133.302 31.3536 133.151 31.4043 132.985 31.4405C133.007 31.4839 133.036 31.5526 133.072 31.6467C133.115 31.7336 133.162 31.824 133.212 31.9181C133.27 32.0121 133.324 32.0953 133.374 32.1677C133.425 32.2401 133.472 32.2763 133.515 32.2763C133.695 32.2763 133.871 32.2148 134.044 32.0917C134.225 31.9687 134.383 31.7878 134.52 31.549C134.664 31.303 134.776 31.0027 134.855 30.6481C134.941 30.2863 134.985 29.8702 134.985 29.3999L134.974 27.674H136.898L136.908 30.8544C136.908 31.2017 136.898 31.4694 136.876 31.6576C136.855 31.8457 136.815 32.0121 136.757 32.1569H138.011C137.953 32.0049 137.913 31.8276 137.892 31.625C137.87 31.4224 137.859 31.1655 137.859 30.8544L137.849 28.2167C137.849 27.8694 137.859 27.6017 137.881 27.4135C137.91 27.2254 137.953 27.0626 138.011 26.9251ZM144.625 27.674C144.819 27.674 144.996 27.6994 145.154 27.75C145.32 27.8007 145.439 27.8477 145.511 27.8911L145.457 27.1856C145.45 27.1277 145.439 27.0843 145.424 27.0553C145.41 27.0192 145.374 26.9938 145.316 26.9794C145.266 26.9576 145.187 26.9432 145.079 26.9359C144.97 26.9287 144.819 26.9251 144.625 26.9251H141.879C141.937 27.077 141.977 27.2543 141.998 27.4569C142.027 27.6596 142.038 27.9128 142.031 28.2167V30.8544C142.031 31.2017 142.02 31.473 141.998 31.6684C141.977 31.8638 141.937 32.0266 141.879 32.1569H143.133C143.075 32.0121 143.036 31.8421 143.014 31.6467C142.993 31.4441 142.982 31.18 142.982 30.8544V27.674H144.625ZM153.434 29.541C153.427 28.6654 153.211 27.9924 152.785 27.5221C152.367 27.0445 151.777 26.8057 151.013 26.8057C150.242 26.8129 149.647 27.0553 149.23 27.5329C148.812 28.0033 148.603 28.6726 148.603 29.541C148.603 30.4165 148.812 31.0931 149.23 31.5707C149.655 32.0483 150.249 32.2871 151.013 32.2871C151.791 32.2799 152.389 32.0375 152.807 31.5599C153.225 31.0751 153.434 30.4021 153.434 29.541ZM152.45 29.541C152.45 30.1705 152.324 30.6553 152.072 30.9955C151.82 31.3355 151.467 31.5056 151.013 31.5056C150.545 31.4984 150.188 31.3247 149.943 30.9846C149.705 30.6445 149.586 30.1633 149.586 29.541C149.593 28.9042 149.72 28.4194 149.965 28.0865C150.21 27.7536 150.559 27.5872 151.013 27.5872C151.481 27.5944 151.838 27.7681 152.083 28.1082C152.328 28.4483 152.45 28.9259 152.45 29.541ZM160.982 30.8218C160.982 30.6843 160.963 30.5323 160.927 30.3659C160.891 30.1995 160.823 30.0403 160.722 29.8883C160.628 29.7363 160.495 29.6061 160.322 29.4976C160.149 29.3818 159.929 29.313 159.663 29.2913C159.778 29.2769 159.897 29.2443 160.019 29.1936C160.142 29.1357 160.25 29.0634 160.344 28.9765C160.445 28.8897 160.528 28.792 160.592 28.6835C160.657 28.5677 160.69 28.4447 160.69 28.3144C160.69 27.9454 160.603 27.6668 160.43 27.4786C160.264 27.2832 160.055 27.1458 159.803 27.0662C159.551 26.9866 159.281 26.9432 158.993 26.9359C158.712 26.9287 158.456 26.9251 158.226 26.9251H157.123C157.181 27.077 157.22 27.2543 157.242 27.4569C157.263 27.6596 157.274 27.9128 157.274 28.2167V30.8544C157.274 31.2017 157.263 31.4767 157.242 31.6793C157.22 31.8747 157.181 32.0375 157.123 32.1677C157.13 32.1677 157.195 32.1677 157.318 32.1677C157.447 32.1677 157.617 32.1677 157.826 32.1677C158.034 32.1677 158.247 32.1677 158.463 32.1677C158.687 32.1677 158.896 32.1677 159.09 32.1677C159.292 32.1677 159.443 32.1677 159.544 32.1677C159.976 32.1677 160.322 32.0483 160.582 31.8095C160.841 31.5707 160.974 31.2415 160.982 30.8218ZM159.868 28.3144C159.868 28.4592 159.829 28.5786 159.749 28.6726C159.677 28.7595 159.587 28.8282 159.479 28.8788C159.371 28.9295 159.252 28.9657 159.122 28.9874C159 29.0019 158.888 29.0091 158.787 29.0091H158.226V27.674H158.744C158.874 27.674 159.004 27.6849 159.133 27.7066C159.27 27.7211 159.393 27.7536 159.501 27.8043C159.609 27.8477 159.695 27.9128 159.76 27.9996C159.832 28.0792 159.868 28.1842 159.868 28.3144ZM160.117 30.5938C160.117 30.7024 160.102 30.8109 160.074 30.9195C160.045 31.0208 159.987 31.1112 159.9 31.1908C159.821 31.2704 159.71 31.3355 159.565 31.3862C159.429 31.4369 159.249 31.4622 159.025 31.4622H158.226V29.6712H158.787C159.198 29.6712 159.519 29.7544 159.749 29.9209C159.987 30.0873 160.109 30.3116 160.117 30.5938Z" fill="white"/>
<path d="M39.639 6.79083H3.46681C1.55215 6.79083 0 5.23202 0 3.30908V0H43.1058V3.30908C43.1058 5.23202 41.5538 6.79083 39.639 6.79083Z" fill="white"/>
<path d="M39.7218 12.026H3.59584C3.12711 12.026 2.74707 11.6443 2.74707 11.1737V9.55359C2.74707 9.08284 3.12711 8.70117 3.59584 8.70117H39.7218C40.1904 8.70117 40.5705 9.08284 40.5705 9.55359V11.1737C40.5705 11.6443 40.1904 12.026 39.7218 12.026Z" fill="white"/>
<path d="M14.7814 38.4663C14.7814 39.3864 14.0368 40.1271 13.1206 40.1271C12.6643 40.1271 12.2518 39.9402 11.956 39.6431C11.6568 39.3425 11.4705 38.9283 11.4705 38.4663V19.193C11.4705 18.2764 12.208 17.5322 13.1206 17.5322C13.5769 17.5322 13.9931 17.7192 14.2923 18.0198C14.5918 18.3205 14.7814 18.7347 14.7814 19.193V38.4663ZM32.672 14.3799V23.2225L29.3611 24.139V18.413C29.3611 16.1856 27.5632 14.3799 25.3453 14.3799H4.85986V49.6771L15.475 43.8076C18.6522 42.0513 20.6258 38.6972 20.6258 35.0548V18.9925C20.6258 18.0192 21.4235 17.1887 22.3906 17.2532C22.8067 17.2808 23.1749 17.4598 23.4549 17.7338C23.7506 18.0345 23.9367 18.4523 23.9367 18.9108V39.1262L29.3611 36.1308V29.2057L32.672 28.0654V34.3015L38.2461 31.2147V14.3799H32.672Z" fill="white"/>
</g>
<defs>
<clipPath id="clip0_160_169">
<rect width="162" height="50" fill="white"/>
</clipPath>
</defs>
</svg>
