<svg width="162" height="50" viewBox="0 0 162 50" fill="none" xmlns="http://www.w3.org/2000/svg">
<g clip-path="url(#clip0_2_1722)">
<path d="M60.4712 3.98107H55.3623V6.07893C55.3623 7.51524 55.3248 8.76429 55.2505 9.82702C55.1758 10.89 55.0782 11.8131 54.9577 12.5965C54.8364 13.3797 54.6922 14.0417 54.5246 14.5828C54.3571 15.1231 54.19 15.5894 54.0225 15.9807H60.4712V3.98107ZM62.3694 23.6909C62.6298 22.8311 62.7602 22.1209 62.7602 21.5602V19.6535H51.4261V21.5883C51.4261 22.149 51.547 22.8591 51.7888 23.7188H46.9873C47.2663 22.8591 47.4061 22.149 47.4061 21.5883V16.5978C47.6479 16.5978 47.8989 16.5373 48.16 16.4153C48.4204 16.294 48.6713 16.1352 48.9135 15.9389C49.1553 15.7427 49.3786 15.5141 49.5837 15.2519C49.7883 14.9906 49.9464 14.7191 50.0582 14.439C50.1882 14.1024 50.3138 13.7285 50.4351 13.3175C50.556 12.9063 50.6627 12.3924 50.756 11.7753C50.8488 11.1583 50.9188 10.3923 50.9654 9.47615C51.0116 8.56095 51.0353 7.42972 51.0353 6.08385V3.98107C51.0353 2.33656 50.756 1.1123 50.1977 0.308289H65.6078C65.3466 0.719655 65.1471 1.21046 65.0072 1.78032C64.8678 2.35075 64.7982 3.08402 64.7982 3.98107V15.9807H66.7801V21.5524C66.7801 22.1148 66.9196 22.8277 67.199 23.6909H62.3694Z" fill="#1C1C1C"/>
<path d="M73.6286 5.25678C72.7253 6.31293 72.2646 7.88785 72.2468 9.98119C72.2468 12.0374 72.6976 13.6027 73.6005 14.6773C74.503 15.7522 75.829 16.299 77.5786 16.3173C79.3096 16.3173 80.6214 15.7846 81.5148 14.7192C82.4082 13.654 82.8641 12.0745 82.8827 9.98119C82.8827 7.94401 82.4362 6.38801 81.5428 5.31277C80.6495 4.23813 79.3278 3.69172 77.5786 3.6728C75.848 3.6728 74.531 4.20107 73.6286 5.25678ZM84.837 2.55124C86.4933 4.2525 87.3306 6.72865 87.3492 9.98119C87.3492 13.2148 86.521 15.6864 84.8646 17.3967C83.2083 19.1071 80.7795 19.9712 77.5786 19.9901C74.4145 19.9901 71.9995 19.1398 70.3344 17.4387C68.6686 15.7382 67.8262 13.2522 67.8076 9.98119C67.8076 6.72865 68.6314 4.25702 70.2787 2.56524C71.9256 0.874005 74.3587 0.0189283 77.5786 1.52588e-05C80.7609 1.52588e-05 83.1802 0.850553 84.837 2.55124Z" fill="#1C1C1C"/>
<path d="M95.0385 0.308304C94.7777 0.719667 94.5821 1.21047 94.4521 1.78033C94.3217 2.35076 94.2474 3.08403 94.2289 3.98111V7.62587H100.985V3.98111C100.985 3.1402 100.924 2.4249 100.803 1.83613C100.682 1.24773 100.482 0.738393 100.203 0.308304H106.122C105.86 0.719667 105.665 1.21047 105.535 1.78033C105.405 2.35076 105.33 3.08403 105.312 3.98111V16.0088C105.312 16.8316 105.372 17.5369 105.493 18.1256C105.614 18.7144 105.824 19.2241 106.122 19.6535H100.203C100.463 19.261 100.654 18.7802 100.775 18.2098C100.896 17.64 100.966 16.9061 100.985 16.0088V11.2988H94.2289V16.0088C94.2289 16.8316 94.2893 17.5369 94.4106 18.1256C94.5315 18.7144 94.7409 19.2241 95.0385 19.6535H89.0923C89.3527 19.2241 89.553 18.724 89.6925 18.1538C89.8323 17.5838 89.9019 16.8688 89.9019 16.0088V3.98111C89.9019 2.35492 89.632 1.13123 89.0923 0.308304H95.0385Z" fill="#1C1C1C"/>
<path d="M113.128 0.308304C113.128 0.51408 113.142 0.714751 113.17 0.911072C113.198 1.10739 113.249 1.32225 113.324 1.55602C113.397 1.78998 113.495 2.05628 113.617 2.35492C113.738 2.65394 113.9 3.00006 114.105 3.39232L116.45 7.99016L119.13 2.3831C119.335 1.93448 119.465 1.54183 119.521 1.20537C119.577 0.869088 119.586 0.570445 119.549 0.308304H125.44C125.067 0.738393 124.658 1.29918 124.211 1.99065C123.764 2.68212 123.299 3.48613 122.815 4.40171L118.404 12.8969C117.716 14.2242 117.106 15.3219 116.576 16.1914C116.046 17.0602 115.557 17.7521 115.11 18.2658C114.664 18.7802 114.231 19.1398 113.812 19.3452C113.393 19.5512 112.961 19.6535 112.514 19.6535H108.019C108.968 18.9062 109.829 18.1256 110.602 17.3124C111.374 16.4995 112.002 15.6913 112.486 14.8875L114.105 12.1679L110.364 4.99052C109.899 4.09345 109.378 3.25709 108.801 2.48107C108.224 1.70581 107.61 0.981052 106.958 0.308304H113.128Z" fill="#1C1C1C"/>
<path d="M125.216 19.1352C124.825 18.5652 124.35 17.7007 123.792 16.5415C124.239 16.5415 124.7 16.425 125.174 16.1914C125.649 15.9576 126.077 15.4763 126.458 14.7473C126.839 14.0182 127.151 12.967 127.394 11.593C127.635 10.2193 127.756 8.38262 127.756 6.08389V3.98111C127.756 2.33658 127.477 1.11231 126.919 0.308304H142.328C142.068 0.719672 141.868 1.21047 141.728 1.78033C141.589 2.35076 141.519 3.08403 141.519 3.98111V16.0088C141.519 16.8688 141.579 17.5838 141.7 18.1538C141.821 18.724 142.03 19.2241 142.328 19.6535H136.411C136.931 18.8315 137.192 17.6165 137.192 16.0088V3.98111H132.083V6.08389C132.083 8.6071 131.919 10.7521 131.591 12.5182C131.263 14.2847 130.837 15.724 130.313 16.836C129.789 17.9483 129.194 18.7523 128.53 19.2472C127.865 19.7422 127.198 19.9901 126.528 19.9901C126.044 19.9901 125.606 19.7049 125.216 19.1352Z" fill="#1C1C1C"/>
<path d="M156.175 8.83159V3.50444C154.556 3.24286 153.351 3.35994 152.56 3.85471C151.769 4.35044 151.373 5.09333 151.373 6.08385C151.373 6.66353 151.494 7.14508 151.736 7.5275C151.978 7.91087 152.309 8.2146 152.728 8.43893C153.146 8.66325 153.649 8.80829 154.235 8.87337C154.821 8.93921 155.467 8.9254 156.175 8.83159ZM150.061 11.0745C149.149 10.5885 148.465 9.92059 148.009 9.06968C147.553 8.21952 147.325 7.23341 147.325 6.11202C147.344 4.22428 147.947 2.78005 149.133 1.78029C150.321 0.780344 152.017 0.280273 154.223 0.280273C154.634 0.280273 155.152 0.28973 155.779 0.308266C156.405 0.327179 157.054 0.345903 157.727 0.364438C158.4 0.38335 159.049 0.38789 159.675 0.378244C160.3 0.368977 160.8 0.345903 161.172 0.308266C160.632 1.09317 160.363 2.30835 160.363 3.95306V16.0088C160.363 16.8875 160.432 17.6117 160.572 18.1818C160.711 18.7522 160.911 19.2428 161.172 19.6534H155.337C155.635 19.2052 155.849 18.6771 155.98 18.0694C156.11 17.4625 156.175 16.7754 156.175 16.0088V12.1679H155.589C155.254 12.1494 154.947 12.1399 154.668 12.1399C154.388 12.1399 154.128 12.1213 153.886 12.0837L151.932 15.7565C151.113 17.2705 150.41 18.3316 149.824 18.9389C149.238 19.5462 148.656 19.8498 148.079 19.8498C147.093 19.831 145.669 19.2521 143.808 18.1118C144.738 17.7194 145.623 17.1398 146.46 16.3733C147.297 15.6071 147.986 14.7473 148.526 13.794L150.061 11.0745Z" fill="#1C1C1C"/>
<path d="M51.1483 27.4894C51.1483 27.4098 51.1012 27.3302 51.0076 27.2506C50.9211 27.171 50.8057 27.0986 50.6619 27.0335C50.5248 26.9684 50.3628 26.9141 50.1755 26.8707C49.9953 26.8273 49.808 26.8056 49.6132 26.8056C49.2458 26.8056 48.9111 26.8707 48.6084 27.001C48.3058 27.1312 48.0497 27.3157 47.8411 27.5545C47.6321 27.7861 47.4697 28.0719 47.3547 28.412C47.2393 28.7449 47.1816 29.1175 47.1816 29.53C47.1816 29.9497 47.2358 30.3296 47.3436 30.6697C47.459 31.0098 47.6175 31.2992 47.8194 31.5381C48.0284 31.7769 48.2769 31.9614 48.565 32.0916C48.8605 32.2146 49.1885 32.2762 49.5484 32.2762C49.7574 32.2762 49.9522 32.2544 50.132 32.211C50.3197 32.1748 50.4817 32.1278 50.6184 32.0699C50.7555 32.012 50.8634 31.9433 50.9428 31.8637C51.0218 31.7769 51.0617 31.69 51.0617 31.6032L51.04 30.8108C50.8239 31.0424 50.6077 31.2124 50.3916 31.321C50.1826 31.4295 49.9558 31.4838 49.7108 31.4838C49.2209 31.4838 48.8388 31.3101 48.565 30.9628C48.2987 30.6082 48.1651 30.1234 48.1651 29.5083C48.1722 28.9077 48.3022 28.4373 48.5543 28.0972C48.8135 27.7571 49.1521 27.5871 49.5702 27.5871C49.8222 27.5943 50.0601 27.6522 50.2833 27.7608C50.507 27.8693 50.6907 28.0249 50.8345 28.2275L51.0724 27.7282C51.1084 27.6558 51.1301 27.6052 51.1372 27.5762C51.1443 27.5473 51.1483 27.5183 51.1483 27.4894ZM59.2056 26.925H54.6988C54.7565 27.0769 54.796 27.2542 54.8178 27.4568C54.8462 27.6594 54.8573 27.9127 54.8502 28.2166L54.8715 30.8542C54.8715 31.2016 54.8608 31.4729 54.8391 31.6683C54.8178 31.8637 54.7779 32.0265 54.7202 32.1567H55.9739C55.9162 32.012 55.8767 31.842 55.855 31.6466C55.8336 31.444 55.8226 31.1799 55.8226 30.8542L55.8012 27.6739H58.0925L58.1139 30.8542C58.1139 31.2016 58.1032 31.4693 58.0815 31.6575C58.0597 31.8456 58.0202 32.012 57.9625 32.1567H59.2056C59.1479 32.0048 59.1084 31.8275 59.0867 31.6249C59.0649 31.4223 59.0543 31.1654 59.0543 30.8542L59.0436 28.2166C59.0436 27.8693 59.0543 27.6015 59.076 27.4134C59.1048 27.2253 59.1479 27.0625 59.2056 26.925ZM67.7434 26.925H66.5869L64.2308 30.8108V28.2166C64.2308 27.9127 64.2414 27.6594 64.2632 27.4568C64.2849 27.2542 64.3244 27.0769 64.3821 26.925H63.1284C63.1861 27.0769 63.2256 27.2542 63.2473 27.4568C63.2761 27.6594 63.2868 27.9127 63.2797 28.2166V30.8542C63.2797 31.2016 63.269 31.4729 63.2473 31.6683C63.2256 31.8637 63.1861 32.0265 63.1284 32.1567H64.2632L66.6303 28.2817V30.8542C66.6303 31.2016 66.6193 31.4693 66.5975 31.6575C66.5762 31.8456 66.5363 32.012 66.479 32.1567H67.7327C67.675 32.0048 67.6351 31.8275 67.6138 31.6249C67.5921 31.4223 67.5814 31.1654 67.5814 30.8542V28.2166C67.5814 27.8693 67.5921 27.6015 67.6138 27.4134C67.6426 27.2253 67.6857 27.0625 67.7434 26.925ZM75.2855 27.4894C75.2855 27.4098 75.2385 27.3302 75.1448 27.2506C75.0583 27.171 74.9429 27.0986 74.7991 27.0335C74.662 26.9684 74.5 26.9141 74.3127 26.8707C74.1325 26.8273 73.9452 26.8056 73.7504 26.8056C73.383 26.8056 73.0479 26.8707 72.7456 27.001C72.443 27.1312 72.1869 27.3157 71.9783 27.5545C71.7693 27.7861 71.6069 28.0719 71.4919 28.412C71.3765 28.7449 71.3188 29.1175 71.3188 29.53C71.3188 29.9497 71.373 30.3296 71.4809 30.6697C71.5962 31.0098 71.7547 31.2992 71.9566 31.5381C72.1656 31.7769 72.4141 31.9614 72.7022 32.0916C72.9977 32.2146 73.3257 32.2762 73.6856 32.2762C73.8947 32.2762 74.089 32.2544 74.2692 32.211C74.4565 32.1748 74.6189 32.1278 74.7556 32.0699C74.8927 32.012 75.0006 31.9433 75.08 31.8637C75.159 31.7769 75.1989 31.69 75.1989 31.6032L75.1772 30.8108C74.9611 31.0424 74.7449 31.2124 74.5288 31.321C74.3198 31.4295 74.093 31.4838 73.848 31.4838C73.3581 31.4838 72.976 31.3101 72.7022 30.9628C72.4355 30.6082 72.3023 30.1234 72.3023 29.5083C72.3094 28.9077 72.4394 28.4373 72.6915 28.0972C72.9507 27.7571 73.2893 27.5871 73.7074 27.5871C73.9594 27.5943 74.1973 27.6522 74.4206 27.7608C74.6442 27.8693 74.8279 28.0249 74.9718 28.2275L75.2096 27.7282C75.2456 27.6558 75.2673 27.6052 75.2744 27.5762C75.2815 27.5473 75.2855 27.5183 75.2855 27.4894ZM81.3218 29.7796V30.7457C81.3218 30.9845 81.2317 31.1835 81.0515 31.3427C80.8784 31.5019 80.6587 31.5815 80.392 31.5815C80.1399 31.5815 79.942 31.5091 79.7978 31.3644C79.6611 31.2197 79.5923 31.0388 79.5923 30.8217C79.5998 30.496 79.7547 30.2464 80.0574 30.0727C80.3596 29.8918 80.7812 29.7941 81.3218 29.7796ZM81.3218 29.1175C80.4284 29.1754 79.7725 29.3527 79.3548 29.6494C78.9297 29.9461 78.7171 30.373 78.7171 30.9302C78.7242 31.3499 78.8503 31.6792 79.0952 31.918C79.3473 32.1567 79.6899 32.2762 80.1222 32.2762C80.6263 32.2689 81.0697 32.0952 81.4514 31.7552C81.5162 31.9433 81.581 32.0771 81.6458 32.1567C81.711 32.2364 81.7758 32.2762 81.8406 32.2762C81.8907 32.2689 81.952 32.2472 82.0243 32.211L82.6833 31.8854C82.5178 31.7624 82.4024 31.6321 82.3376 31.4946C82.2799 31.3571 82.2511 31.1762 82.2511 30.9519V28.184C82.2511 27.7065 82.1179 27.3591 81.8512 27.1421C81.592 26.9177 81.1957 26.8056 80.6623 26.8056C80.4173 26.8056 80.1834 26.8273 79.9598 26.8707C79.7365 26.9069 79.5386 26.9575 79.3655 27.0227C79.2 27.0878 79.0664 27.1638 78.9656 27.2506C78.8649 27.3374 78.8143 27.4279 78.8143 27.5219C78.8143 27.5798 78.825 27.6413 78.8467 27.7065L78.9874 28.184C79.196 27.967 79.4196 27.8078 79.6571 27.7065C79.9021 27.6052 80.1759 27.5545 80.4786 27.5545C80.7958 27.5545 81.0155 27.6088 81.138 27.7173C81.2605 27.8259 81.3218 28.0032 81.3218 28.2492V29.1175ZM90.8643 26.925H89.5996C89.6573 27.0769 89.6936 27.2542 89.7078 27.4568C89.722 27.6594 89.7367 27.9127 89.7509 28.2166V28.9764H87.46V28.2166C87.46 27.9127 87.4706 27.6594 87.4924 27.4568C87.5137 27.2542 87.5536 27.0769 87.6113 26.925H86.3576C86.4149 27.0769 86.4548 27.2542 86.4761 27.4568C86.505 27.6594 86.516 27.9127 86.5089 28.2166L86.5303 30.8542C86.5303 31.2016 86.5196 31.4729 86.4979 31.6683C86.4761 31.8637 86.4366 32.0265 86.3789 32.1567H87.6326C87.575 32.012 87.5354 31.842 87.5137 31.6466C87.4924 31.444 87.4813 31.1799 87.4813 30.8542L87.46 29.6385H89.7509L89.7726 30.8542C89.7726 31.2016 89.762 31.4693 89.7402 31.6575C89.7185 31.8456 89.679 32.012 89.6213 32.1567H90.8643C90.8067 32.0048 90.7671 31.8275 90.7454 31.6249C90.7237 31.4223 90.713 31.1654 90.713 30.8542L90.702 28.2166C90.702 27.8693 90.713 27.6015 90.7347 27.4134C90.7632 27.2253 90.8067 27.0625 90.8643 26.925ZM99.4021 26.925H98.2456L95.8895 30.8108V28.2166C95.8895 27.9127 95.9002 27.6594 95.9219 27.4568C95.9436 27.2542 95.9832 27.0769 96.0408 26.925H94.7871C94.8448 27.0769 94.8843 27.2542 94.9061 27.4568C94.9349 27.6594 94.9456 27.9127 94.9384 28.2166V30.8542C94.9384 31.2016 94.9278 31.4729 94.9061 31.6683C94.8843 31.8637 94.8448 32.0265 94.7871 32.1567H95.9219L98.2887 28.2817V30.8542C98.2887 31.2016 98.278 31.4693 98.2563 31.6575C98.235 31.8456 98.195 32.012 98.1374 32.1567H99.3911C99.3338 32.0048 99.2939 31.8275 99.2725 31.6249C99.2508 31.4223 99.2397 31.1654 99.2397 30.8542V28.2166C99.2397 27.8693 99.2508 27.6015 99.2725 27.4134C99.301 27.2253 99.3445 27.0625 99.4021 26.925ZM106.069 28.5423L103.918 29.3021V29.1392C103.918 28.6327 104.026 28.2419 104.242 27.967C104.458 27.692 104.75 27.5545 105.118 27.5545C105.355 27.5617 105.553 27.6522 105.712 27.8259C105.878 27.9923 105.997 28.2311 106.069 28.5423ZM107.084 28.8679C106.998 28.2166 106.785 27.7101 106.447 27.3483C106.108 26.9865 105.683 26.8056 105.172 26.8056C104.862 26.8056 104.57 26.8743 104.296 27.0118C104.029 27.1421 103.796 27.3266 103.594 27.5654C103.399 27.7969 103.244 28.0719 103.129 28.3903C103.021 28.7015 102.967 29.0379 102.967 29.3998C102.967 29.8412 103.024 30.2392 103.14 30.5937C103.255 30.9483 103.413 31.2522 103.615 31.5055C103.824 31.7515 104.069 31.9433 104.35 32.0808C104.638 32.2183 104.959 32.287 105.312 32.287C105.687 32.287 106.033 32.211 106.35 32.0591C106.666 31.9071 106.944 31.6937 107.182 31.4187L106.749 30.8C106.562 31.0388 106.364 31.2124 106.155 31.321C105.946 31.4295 105.708 31.4838 105.442 31.4838C105.074 31.4838 104.761 31.3463 104.502 31.0713C104.242 30.7891 104.076 30.4164 104.004 29.9533L107.084 28.8679ZM121.519 33.2965C121.49 33.2241 121.465 33.0866 121.443 32.884C121.421 32.6886 121.404 32.486 121.389 32.2762C121.375 32.0735 121.364 31.8926 121.357 31.7335C121.35 31.5742 121.346 31.4946 121.346 31.4946H120.687V28.2275C120.687 27.8802 120.698 27.6124 120.719 27.4242C120.748 27.2289 120.791 27.0625 120.849 26.925H116.807C116.85 27.0046 116.889 27.1023 116.926 27.218C116.962 27.3266 116.994 27.4423 117.023 27.5654C117.052 27.6884 117.073 27.815 117.088 27.9453C117.102 28.0755 117.11 28.1985 117.11 28.3143V29.2369C117.11 29.6783 117.081 30.0438 117.023 30.3332C116.972 30.6154 116.897 30.8434 116.796 31.0171C116.702 31.1835 116.587 31.3029 116.45 31.3752C116.313 31.4404 116.166 31.4802 116.007 31.4946C116.007 31.4946 116.004 31.5742 115.996 31.7335C115.989 31.8926 115.978 32.0735 115.964 32.2762C115.949 32.486 115.931 32.6886 115.91 32.884C115.888 33.0866 115.863 33.2241 115.834 33.2965H117.023C116.965 33.159 116.918 33.0034 116.882 32.8297C116.853 32.6633 116.839 32.439 116.839 32.1567H120.46C120.46 32.439 120.442 32.6633 120.406 32.8297C120.377 33.0034 120.334 33.159 120.276 33.2965H121.519ZM119.736 31.4946H117.596C117.726 31.2558 117.826 30.9628 117.898 30.6154C117.978 30.2609 118.017 29.8556 118.017 29.3998V27.6739H119.736V31.4946ZM129.772 29.5409C129.764 28.6653 129.548 27.9923 129.123 27.5219C128.705 27.0444 128.114 26.8056 127.351 26.8056C126.58 26.8128 125.985 27.0552 125.568 27.5328C125.149 28.0032 124.94 28.6725 124.94 29.5409C124.94 30.4164 125.149 31.093 125.568 31.5706C125.993 32.0482 126.587 32.287 127.351 32.287C128.129 32.2798 128.727 32.0374 129.145 31.5598C129.563 31.075 129.772 30.402 129.772 29.5409ZM128.788 29.5409C128.788 30.1704 128.662 30.6552 128.41 30.9954C128.158 31.3354 127.805 31.5055 127.351 31.5055C126.882 31.4983 126.526 31.3246 126.281 30.9845C126.043 30.6444 125.924 30.1632 125.924 29.5409C125.931 28.9041 126.057 28.4192 126.302 28.0864C126.547 27.7535 126.897 27.5871 127.351 27.5871C127.819 27.5943 128.176 27.768 128.421 28.1081C128.666 28.4482 128.788 28.9258 128.788 29.5409ZM138.011 26.925H133.807C133.85 27.0046 133.89 27.1023 133.926 27.218C133.961 27.3266 133.994 27.4423 134.023 27.5654C134.052 27.6884 134.073 27.815 134.088 27.9453C134.102 28.0683 134.109 28.1877 134.109 28.3035L134.12 29.2369C134.12 29.6783 134.091 30.0365 134.033 30.3115C133.976 30.5792 133.897 30.7927 133.796 30.9519C133.695 31.1039 133.576 31.216 133.439 31.2884C133.302 31.3535 133.151 31.4042 132.985 31.4404C133.007 31.4838 133.036 31.5525 133.072 31.6466C133.115 31.7335 133.162 31.8239 133.212 31.918C133.27 32.012 133.324 32.0952 133.374 32.1676C133.425 32.24 133.472 32.2762 133.515 32.2762C133.695 32.2762 133.871 32.2146 134.044 32.0916C134.225 31.9686 134.383 31.7877 134.52 31.5489C134.664 31.3029 134.776 31.0026 134.855 30.648C134.941 30.2862 134.985 29.8701 134.985 29.3998L134.974 27.6739H136.898L136.908 30.8542C136.908 31.2016 136.898 31.4693 136.876 31.6575C136.855 31.8456 136.815 32.012 136.757 32.1567H138.011C137.953 32.0048 137.913 31.8275 137.892 31.6249C137.87 31.4223 137.859 31.1654 137.859 30.8542L137.849 28.2166C137.849 27.8693 137.859 27.6015 137.881 27.4134C137.91 27.2253 137.953 27.0625 138.011 26.925ZM144.625 27.6739C144.819 27.6739 144.996 27.6992 145.154 27.7499C145.32 27.8006 145.439 27.8476 145.511 27.891L145.457 27.1855C145.45 27.1276 145.439 27.0842 145.424 27.0552C145.41 27.019 145.374 26.9937 145.316 26.9792C145.266 26.9575 145.187 26.9431 145.079 26.9358C144.97 26.9286 144.819 26.925 144.625 26.925H141.879C141.937 27.0769 141.977 27.2542 141.998 27.4568C142.027 27.6594 142.038 27.9127 142.031 28.2166V30.8542C142.031 31.2016 142.02 31.4729 141.998 31.6683C141.977 31.8637 141.937 32.0265 141.879 32.1567H143.133C143.075 32.012 143.036 31.842 143.014 31.6466C142.993 31.444 142.982 31.1799 142.982 30.8542V27.6739H144.625ZM153.434 29.5409C153.427 28.6653 153.211 27.9923 152.785 27.5219C152.367 27.0444 151.777 26.8056 151.013 26.8056C150.242 26.8128 149.647 27.0552 149.23 27.5328C148.812 28.0032 148.603 28.6725 148.603 29.5409C148.603 30.4164 148.812 31.093 149.23 31.5706C149.655 32.0482 150.249 32.287 151.013 32.287C151.791 32.2798 152.389 32.0374 152.807 31.5598C153.225 31.075 153.434 30.402 153.434 29.5409ZM152.45 29.5409C152.45 30.1704 152.324 30.6552 152.072 30.9954C151.82 31.3354 151.467 31.5055 151.013 31.5055C150.545 31.4983 150.188 31.3246 149.943 30.9845C149.705 30.6444 149.586 30.1632 149.586 29.5409C149.593 28.9041 149.72 28.4192 149.965 28.0864C150.21 27.7535 150.559 27.5871 151.013 27.5871C151.481 27.5943 151.838 27.768 152.083 28.1081C152.328 28.4482 152.45 28.9258 152.45 29.5409ZM160.982 30.8217C160.982 30.6842 160.963 30.5322 160.927 30.3658C160.891 30.1994 160.823 30.0402 160.722 29.8882C160.628 29.7362 160.495 29.606 160.322 29.4975C160.149 29.3817 159.929 29.3129 159.663 29.2912C159.778 29.2767 159.897 29.2442 160.019 29.1935C160.142 29.1356 160.25 29.0633 160.344 28.9764C160.445 28.8896 160.528 28.7919 160.592 28.6834C160.657 28.5676 160.69 28.4446 160.69 28.3143C160.69 27.9453 160.603 27.6667 160.43 27.4785C160.264 27.2831 160.055 27.1457 159.803 27.0661C159.551 26.9865 159.281 26.9431 158.993 26.9358C158.712 26.9286 158.456 26.925 158.226 26.925H157.123C157.181 27.0769 157.22 27.2542 157.242 27.4568C157.263 27.6594 157.274 27.9127 157.274 28.2166V30.8542C157.274 31.2016 157.263 31.4765 157.242 31.6792C157.22 31.8746 157.181 32.0374 157.123 32.1676C157.13 32.1676 157.195 32.1676 157.318 32.1676C157.447 32.1676 157.617 32.1676 157.826 32.1676C158.034 32.1676 158.247 32.1676 158.463 32.1676C158.687 32.1676 158.896 32.1676 159.09 32.1676C159.292 32.1676 159.443 32.1676 159.544 32.1676C159.976 32.1676 160.322 32.0482 160.582 31.8094C160.841 31.5706 160.974 31.2414 160.982 30.8217ZM159.868 28.3143C159.868 28.459 159.829 28.5785 159.749 28.6725C159.677 28.7594 159.587 28.8281 159.479 28.8787C159.371 28.9294 159.252 28.9656 159.122 28.9873C159 29.0017 158.888 29.009 158.787 29.009H158.226V27.6739H158.744C158.874 27.6739 159.004 27.6848 159.133 27.7065C159.27 27.721 159.393 27.7535 159.501 27.8042C159.609 27.8476 159.695 27.9127 159.76 27.9995C159.832 28.0791 159.868 28.184 159.868 28.3143ZM160.117 30.5937C160.117 30.7023 160.102 30.8108 160.074 30.9194C160.045 31.0207 159.987 31.1111 159.9 31.1907C159.821 31.2703 159.71 31.3354 159.565 31.3861C159.429 31.4367 159.249 31.4621 159.025 31.4621H158.226V29.6711H158.787C159.198 29.6711 159.519 29.7543 159.749 29.9208C159.987 30.0872 160.109 30.3115 160.117 30.5937Z" fill="#1C1C1C"/>
<path d="M39.639 6.79083H3.46681C1.55215 6.79083 0 5.23202 0 3.30908V0H43.1058V3.30908C43.1058 5.23202 41.5538 6.79083 39.639 6.79083Z" fill="#B43E41"/>
<path d="M39.7218 12.0255H3.59584C3.12711 12.0255 2.74707 11.6438 2.74707 11.1733V9.55313C2.74707 9.08238 3.12711 8.70071 3.59584 8.70071H39.7218C40.1904 8.70071 40.5705 9.08238 40.5705 9.55313V11.1733C40.5705 11.6438 40.1904 12.0255 39.7218 12.0255Z" fill="#B43E41"/>
<path d="M14.7814 38.4666C14.7814 39.3867 14.0368 40.1274 13.1206 40.1274C12.6643 40.1274 12.2518 39.9405 11.956 39.6434C11.6568 39.3428 11.4705 38.9286 11.4705 38.4666V19.1933C11.4705 18.2767 12.208 17.5325 13.1206 17.5325C13.5769 17.5325 13.9931 17.7196 14.2923 18.0201C14.5918 18.3208 14.7814 18.735 14.7814 19.1933V38.4666ZM32.672 14.3802V23.2228L29.3611 24.1393V18.4133C29.3611 16.1859 27.5632 14.3802 25.3453 14.3802H4.85986V49.6774L15.475 43.8079C18.6522 42.0516 20.6258 38.6975 20.6258 35.0552V18.9928C20.6258 18.0195 21.4235 17.189 22.3906 17.2535C22.8067 17.2811 23.1749 17.4601 23.4549 17.7341C23.7506 18.0348 23.9367 18.4527 23.9367 18.9111V39.1265L29.3611 36.1312V29.206L32.672 28.0658V34.3019L38.2461 31.215V14.3802H32.672Z" fill="#B43E41"/>
</g>
<defs>
<clipPath id="clip0_2_1722">
<rect width="162" height="50" fill="white"/>
</clipPath>
</defs>
</svg>
